<svg width="400" height="400" viewBox="0 0 400 400" fill="none" xmlns="http://www.w3.org/2000/svg">
<rect y="-0.00012207" width="400" height="400" fill="#DD5D18"/>
<rect x="18" y="17.9999" width="364" height="364" rx="7" fill="#D9D2CF"/>
<path d="M120 351.437C120 353.625 118.937 354.75 116.812 354.75L37.4375 354.75C35.3125 354.75 34.25 353.625 34.25 351.437L34.25 344.5C34.25 342.312 35.3125 341.187 37.4375 341.187L116.812 341.187C118.937 341.187 120 342.312 120 344.5L120 351.437ZM76.625 273.437L76.6875 273.437C77.625 268.312 79.9375 264.25 83.625 261.25C87.3125 258.25 91.9375 256.75 97.5 256.75C104.25 256.75 109.687 258.812 113.812 263C117.937 267.187 120 272.75 120 279.687L120 315.312C120 317.5 118.937 318.625 116.812 318.625L37.4375 318.625C35.3125 318.625 34.25 317.5 34.25 315.312L34.25 282.25C34.25 275.312 36.25 269.75 40.3125 265.562C44.375 261.375 49.6875 259.312 56.25 259.312C61.375 259.312 65.6875 260.562 69.1875 263.125C72.6875 265.687 74.875 269.125 75.6875 273.437L76.625 273.437ZM46.1875 285.687L46.3125 305.062L71.1875 305.062L71.1875 285.687C71.1875 281.75 70.0625 278.625 67.8125 276.312C65.5625 274 62.5625 272.812 58.8125 272.812C55.0625 272.812 52 274 49.6875 276.312C47.375 278.625 46.1875 281.75 46.1875 285.687ZM108.312 283.125L108.25 283.125C108.25 279.187 107.062 276.062 104.687 273.75C102.312 271.437 99.125 270.25 95.1875 270.25C91.1875 270.25 88 271.437 85.625 273.75C83.25 276.062 82.0625 279.187 82.0625 283.125L82.0625 305.062L108.312 305.062L108.312 283.125ZM34.25 206.937L34.1875 207.062C34.1875 198.437 36.8125 191.5 42.125 186.312C47.4375 181.125 54.5 178.5 63.3125 178.5C72.125 178.5 79.125 181.062 84.375 186.25C89.625 191.437 92.25 198.312 92.25 206.937L92.25 226.687L116.812 226.687C118.937 226.687 120 227.812 120 230L120 236.937C120 239.125 118.937 240.25 116.812 240.25L37.4375 240.25C35.3125 240.25 34.25 239.125 34.25 236.937L34.25 206.937ZM79.75 208.125L79.875 208.125C79.875 203.187 78.375 199.25 75.375 196.375C72.375 193.5 68.375 192.062 63.3125 192.062C58.25 192.062 54.25 193.5 51.25 196.375C48.25 199.25 46.75 203.187 46.75 208.125L46.75 226.812L79.75 226.812L79.75 208.125Z" fill="#DD5D18"/>
<path d="M292.875 366C285.938 366 282.562 362.625 282.562 355.688V159.375H279L244.125 174.75C240.562 176.25 237.75 176.25 235.5 174.938C233.25 173.625 232.125 171 232.125 167.062V143.625C232.125 138 234.75 134.062 239.812 131.812L287.062 111.375C291.375 109.688 295.688 108.75 300 108.75H320.25C327.188 108.75 330.75 112.125 330.938 119.062V355.688C330.938 362.625 327.375 366 320.438 366H292.875Z" fill="#333333"/>
</svg>
